<mxfile host="app.diagrams.net" modified="2023-12-25T09:02:34.975Z" agent="Mozilla/5.0 (Windows NT 10.0; Win64; x64) AppleWebKit/537.36 (KHTML, like Gecko) Chrome/120.0.0.0 Safari/537.36" version="22.1.11" etag="x3Uuf_0tgi_laBRG0fUy" type="github">
  <diagram name="หน้า-1" id="0sYVMb8Y7u9GulIzvHfo">
    <mxGraphModel>
      <root>
        <mxCell id="0" />
        <mxCell id="1" parent="0" />
      </root>
    </mxGraphModel>
  </diagram>
</mxfile>
